<svg width="1024" height="1024" viewBox="0 0 1024 1024" fill="none" xmlns="http://www.w3.org/2000/svg">
<g clip-path="url(#clip0_142_51)">
<rect width="1024" height="1024" rx="180" fill="#FF7300"/>
<path d="M0 0C337.92 0 675.84 0 1024 0C1024 337.92 1024 675.84 1024 1024C686.08 1024 348.16 1024 0 1024C0 686.08 0 348.16 0 0Z" fill="#FCFCFC"/>
<path d="M483 179C492.817 186.225 498.064 194.818 503.16 205.629C503.555 206.465 503.95 207.301 504.357 208.162C508.144 216.229 511.735 224.377 515.284 232.551C521.899 247.777 528.641 262.944 535.5 278.062C535.893 278.929 536.286 279.795 536.691 280.688C538.278 284.186 539.865 287.685 541.453 291.182C552.846 316.278 564.104 341.43 575.205 366.655C584.053 386.754 592.975 406.82 602.062 426.812C602.364 427.477 602.666 428.141 602.977 428.826C607.259 438.245 611.61 447.631 616 457C616.33 457 616.66 457 617 457C617.12 456.162 617.24 455.325 617.364 454.462C619.549 439.341 621.808 424.232 624.632 409.214C624.989 407.309 625.335 405.401 625.68 403.494C628.101 390.94 631.988 380.048 640 370C640.572 369.24 641.145 368.481 641.734 367.699C651.258 355.917 666.949 347.45 682.01 345.776C698.376 344.854 713.077 348.893 726.187 359C736.078 368.22 741.825 382.951 742.569 396.205C742.853 408.241 740.515 419.992 738.425 431.789C735.812 446.591 733.982 461.425 732.391 476.367C732.051 479.529 731.687 482.686 731.312 485.844C728.816 507.684 729.959 529.064 732 550.875C733.631 568.335 734.756 585.45 734 603C733.956 604.068 733.912 605.137 733.867 606.238C731.11 664.885 703.866 720.107 661 760C632.281 785.32 598.521 801.814 561 809C560.312 809.133 559.625 809.266 558.917 809.403C546.134 811.822 533.681 812.528 520.687 812.437C519.274 812.432 519.274 812.432 517.831 812.427C503.891 812.355 490.485 811.842 477 808C476.096 807.748 475.193 807.496 474.262 807.236C445.533 799.042 419.039 786.182 396 767C395.003 766.189 394.007 765.378 392.98 764.543C380.752 754.502 369.737 743.484 360 731C359.175 729.992 358.35 728.984 357.5 727.945C337.055 702.844 321.047 673.858 305.444 645.595C303.546 642.184 301.588 638.811 299.625 635.437C297.37 631.525 295.28 627.582 293.318 623.515C285.21 606.73 275.145 590.923 264 576C262.204 573.565 260.415 571.126 258.625 568.687C258.169 568.068 257.713 567.448 257.243 566.81C252.234 559.99 247.37 553.069 242.507 546.144C240.543 543.35 238.571 540.562 236.6 537.773C231.757 530.924 226.935 524.06 222.125 517.187C221.541 516.352 220.956 515.517 220.354 514.657C217.385 510.413 214.419 506.167 211.457 501.918C210.284 500.237 209.111 498.556 207.937 496.875C207.363 496.051 206.789 495.227 206.198 494.377C203.326 490.27 200.422 486.193 197.441 482.164C187.056 468.122 176.398 452.48 179 434C181.937 418.999 187.12 408.855 200 400C208.427 394.978 216.455 392.607 226.25 392.625C227.085 392.625 227.921 392.625 228.781 392.625C235.449 392.748 241.006 393.986 247 397C247.754 397.374 248.508 397.747 249.285 398.133C249.851 398.419 250.417 398.705 251 399C244.468 387.122 237.551 375.49 230.551 363.883C229.955 362.893 229.359 361.903 228.745 360.884C227.608 359.005 226.464 357.132 225.309 355.264C216.001 340.101 213.625 325.275 217.25 307.875C218.611 302.861 220.176 298.371 223 294C223.764 292.816 223.764 292.816 224.543 291.609C231.539 281.883 243.127 274.087 254.84 271.332C269.303 269.812 285.068 269.454 297 279C295.842 275.105 294.336 271.487 292.625 267.812C285.415 252.154 282.248 237.775 288 221C293.541 207.042 302.665 197.379 316.23 190.941C329.787 185.461 345.592 187.056 359 192C382.833 202.773 393.435 228.422 405.393 250.094C407.698 254.263 410.035 258.413 412.375 262.562C413.091 263.834 413.807 265.106 414.523 266.379C415.011 267.244 415.498 268.109 416 269C413.596 259.814 410.733 250.812 407.785 241.789C407.441 240.727 407.097 239.664 406.742 238.57C406.431 237.619 406.12 236.668 405.8 235.688C401.83 222.354 403.15 208.331 409.543 196.031C417.346 183.031 427.881 174.832 442.492 170.687C457.544 167.737 470.228 171.14 483 179Z" fill="url(#paint0_linear_142_51)"/>
<path d="M483 179C492.817 186.225 498.064 194.818 503.16 205.629C503.555 206.465 503.95 207.301 504.357 208.162C508.144 216.229 511.735 224.377 515.284 232.551C521.899 247.777 528.641 262.944 535.5 278.062C535.893 278.929 536.286 279.795 536.691 280.688C538.278 284.186 539.865 287.685 541.453 291.182C552.846 316.278 564.104 341.43 575.205 366.655C584.053 386.754 592.975 406.82 602.062 426.812C602.364 427.477 602.666 428.141 602.977 428.826C607.259 438.245 611.61 447.631 616 457C616.33 457 616.66 457 617 457C617.12 456.162 617.24 455.325 617.364 454.462C619.549 439.341 621.808 424.232 624.632 409.214C624.989 407.309 625.335 405.401 625.68 403.494C628.101 390.94 631.988 380.048 640 370C640.572 369.24 641.145 368.481 641.734 367.699C651.258 355.917 666.949 347.45 682.01 345.776C698.376 344.854 713.077 348.893 726.187 359C736.078 368.22 741.825 382.951 742.569 396.205C742.853 408.241 740.515 419.992 738.425 431.789C735.812 446.591 733.982 461.425 732.391 476.367C732.051 479.529 731.687 482.686 731.312 485.844C728.816 507.684 729.959 529.064 732 550.875C733.631 568.335 734.756 585.45 734 603C733.956 604.068 733.912 605.137 733.867 606.238C731.11 664.885 703.866 720.107 661 760C632.281 785.32 598.521 801.814 561 809C560.312 809.133 559.625 809.266 558.917 809.403C546.134 811.822 533.681 812.528 520.687 812.437C519.274 812.432 519.274 812.432 517.831 812.427C503.891 812.355 490.485 811.842 477 808C476.096 807.748 475.193 807.496 474.262 807.236C445.533 799.042 419.039 786.182 396 767C395.003 766.189 394.007 765.378 392.98 764.543C380.752 754.502 369.737 743.484 360 731C359.175 729.992 358.35 728.984 357.5 727.945C337.055 702.844 321.047 673.858 305.444 645.595C303.546 642.184 301.588 638.811 299.625 635.437C297.37 631.525 295.28 627.582 293.318 623.515C285.21 606.73 275.145 590.923 264 576C262.204 573.565 260.415 571.126 258.625 568.687C258.169 568.068 257.713 567.448 257.243 566.81C252.234 559.99 247.37 553.069 242.507 546.144C240.543 543.35 238.571 540.562 236.6 537.773C231.757 530.924 226.935 524.06 222.125 517.187C221.541 516.352 220.956 515.517 220.354 514.657C217.385 510.413 214.419 506.167 211.457 501.918C210.284 500.237 209.111 498.556 207.937 496.875C207.363 496.051 206.789 495.227 206.198 494.377C203.326 490.27 200.422 486.193 197.441 482.164C187.056 468.122 176.398 452.48 179 434C181.937 418.999 187.12 408.855 200 400C208.427 394.978 216.455 392.607 226.25 392.625C227.085 392.625 227.921 392.625 228.781 392.625C235.449 392.748 241.006 393.986 247 397C247.754 397.374 248.508 397.747 249.285 398.133C249.851 398.419 250.417 398.705 251 399C244.468 387.122 237.551 375.49 230.551 363.883C229.955 362.893 229.359 361.903 228.745 360.884C227.608 359.005 226.464 357.132 225.309 355.264C216.001 340.101 213.625 325.275 217.25 307.875C218.611 302.861 220.176 298.371 223 294C223.764 292.816 223.764 292.816 224.543 291.609C231.539 281.883 243.127 274.087 254.84 271.332C269.303 269.812 285.068 269.454 297 279C295.842 275.105 294.336 271.487 292.625 267.812C285.415 252.154 282.248 237.775 288 221C293.541 207.042 302.665 197.379 316.23 190.941C329.787 185.461 345.592 187.056 359 192C382.833 202.773 393.435 228.422 405.393 250.094C407.698 254.263 410.035 258.413 412.375 262.562C413.091 263.834 413.807 265.106 414.523 266.379C415.011 267.244 415.498 268.109 416 269C413.596 259.814 410.733 250.812 407.785 241.789C407.441 240.727 407.097 239.664 406.742 238.57C406.431 237.619 406.12 236.668 405.8 235.688C401.83 222.354 403.15 208.331 409.543 196.031C417.346 183.031 427.881 174.832 442.492 170.687C457.544 167.737 470.228 171.14 483 179ZM432.062 202.812C426.263 210.184 424.754 217.594 425.686 226.979C426.689 233.432 429.298 239.504 431.66 245.556C432.944 248.855 434.202 252.162 435.455 255.473C441.952 272.643 448.628 289.736 455.588 306.724C461.655 321.542 467.579 336.416 473.511 351.288C482.281 373.273 491.1 395.241 500.274 417.062C501.098 419.022 501.919 420.985 502.74 422.947C503.276 424.224 503.812 425.5 504.348 426.777C504.812 427.883 505.276 428.989 505.754 430.128C506.499 431.846 507.283 433.548 508.142 435.211C510.15 439.398 509.576 444.506 509 449C507.062 452.25 507.062 452.25 504 454C500.838 454.674 498.118 454.907 495 454C490.111 450.041 487.164 444.832 483.937 439.5C483.37 438.571 482.803 437.643 482.218 436.686C473.087 421.654 464.579 406.31 456.286 390.803C451.891 382.601 447.357 374.488 442.754 366.403C439.099 359.972 435.525 353.502 432 347C427.989 339.603 423.905 332.253 419.75 324.937C414.801 316.217 409.908 307.466 405.062 298.687C404.56 297.777 404.56 297.777 404.048 296.849C400.358 290.16 396.696 283.457 393.082 276.726C392.767 276.14 392.452 275.554 392.128 274.949C390.644 272.185 389.165 269.418 387.692 266.649C384.716 261.082 381.606 255.641 378.326 250.249C376.55 247.237 375.057 244.161 373.562 241C367.769 229.172 360.208 217.693 347.449 212.683C339.845 210.561 331.423 209.975 324 213C316.881 217.117 310.641 223.111 308 231C307.396 233.903 307.396 233.903 307.125 237C306.943 238.516 306.943 238.516 306.758 240.062C307.416 250.762 312.313 260.275 317.312 269.562C317.922 270.716 318.532 271.869 319.16 273.057C320.769 276.1 322.391 279.135 324.018 282.167C325.311 284.58 326.595 286.996 327.88 289.412C331.892 296.957 335.939 304.482 340 312C340.534 312.988 341.067 313.977 341.617 314.996C347.607 326.079 353.715 337.088 359.934 348.044C364.814 356.647 369.615 365.293 374.409 373.945C378.441 381.215 382.517 388.459 386.625 395.687C391.01 403.409 395.29 411.181 399.5 419C403.755 426.9 408.077 434.755 412.5 442.562C413.027 443.496 413.555 444.43 414.099 445.393C416.92 450.375 419.776 455.334 422.672 460.273C423.271 461.305 423.869 462.337 424.486 463.4C425.63 465.37 426.784 467.333 427.951 469.289C431.042 474.637 432.945 478.769 433 485C431.032 488.795 429.557 490.629 426 493C423.547 493.406 423.547 493.406 420.75 493.5C419.381 493.577 419.381 493.577 417.984 493.656C409.31 491.749 404.959 482.906 400.476 475.958C399.567 474.534 398.659 473.111 397.75 471.687C396.806 470.225 395.86 468.764 394.914 467.303C392.651 463.806 390.4 460.302 388.152 456.795C386.201 453.755 384.232 450.727 382.265 447.698C381.016 445.775 379.773 443.849 378.531 441.922C375.534 437.272 372.516 432.637 369.5 428C367.333 424.667 365.166 421.333 363 418C362.531 417.278 362.062 416.557 361.579 415.813C347.83 394.653 334.395 373.299 321.056 351.878C309.217 332.818 309.217 332.818 297 314C295.925 312.379 295.925 312.379 294.828 310.726C288.781 301.984 283.168 296.897 272.66 294.469C264.47 293.025 256.576 293.971 249.539 298.629C243.115 303.911 238.661 309.78 237.598 318.176C237.32 327.618 239.004 335.176 244.172 343.09C244.796 344.054 245.42 345.018 246.063 346.011C246.702 346.998 247.341 347.984 248 349C250.408 352.804 252.798 356.621 255.187 360.437C255.838 361.476 256.489 362.516 257.159 363.586C261.249 370.137 265.249 376.732 269.187 383.375C273.375 390.423 277.776 397.281 282.36 404.076C291.452 417.568 300.078 431.352 308.399 445.331C319.828 464.49 331.947 483.23 344 502C346.622 506.084 349.242 510.17 351.86 514.257C352.918 515.907 353.977 517.557 355.037 519.207C355.673 520.199 356.309 521.192 356.965 522.215C357.528 523.092 358.091 523.97 358.672 524.875C361.176 528.882 361.642 532.321 361 537C358.015 542.662 358.015 542.662 354 544C351.695 544.273 351.695 544.273 349.125 544.375C348.282 544.424 347.439 544.473 346.57 544.523C340.267 543.24 336.06 535.39 332.312 530.5C331.693 529.698 331.074 528.896 330.435 528.07C327.73 524.565 325.036 521.051 322.355 517.527C317.133 510.676 311.741 504.001 306.244 497.369C302.12 492.386 298.089 487.34 294.113 482.238C290.093 477.09 285.972 472.027 281.84 466.967C278.299 462.622 274.819 458.235 271.375 453.812C266.099 447.049 260.588 440.506 255 434C254.027 432.84 254.027 432.84 253.035 431.656C246.477 423.923 240.035 417.042 229.59 415.687C221.636 415.294 215.493 417.903 209.187 422.625C204.191 427.306 202.149 432.69 201.844 439.476C202.345 451.18 206.724 458.02 213.75 467.062C221.55 477.277 228.879 487.781 236.173 498.361C238.756 502.092 241.375 505.798 244 509.5C249.361 517.07 254.661 524.682 259.951 532.303C263.071 536.798 266.197 541.288 269.359 545.754C292.717 578.768 314.761 612.676 334.25 648.125C339.609 657.86 345.167 667.442 350.937 676.937C351.284 677.51 351.631 678.082 351.989 678.672C358.502 689.4 365.272 699.961 372.812 710C373.567 711.006 373.567 711.006 374.336 712.032C378.443 717.43 382.858 722.436 387.527 727.351C389.299 729.249 390.964 731.137 392.605 733.14C395.754 736.9 399.232 739.876 403 743C403.513 743.431 404.026 743.862 404.555 744.305C424.112 760.664 445.778 773.84 470 782C471.038 782.377 472.075 782.755 473.144 783.144C514.262 797.237 564.765 789.6 603 771C618.896 763.047 632.661 752.656 646 741C646.847 740.277 647.694 739.553 648.566 738.808C653.507 734.537 657.836 730.025 662 725C662.664 724.224 663.328 723.448 664.012 722.648C686.576 695.83 702.87 664.665 708.687 629.875C708.902 628.604 709.116 627.332 709.337 626.023C710.964 615.982 711.908 606.162 712 596C712.014 595.074 712.027 594.149 712.041 593.196C712.607 574.858 712.607 574.858 710.514 556.713C702.324 513.472 711.128 464.961 716.816 421.944C718.657 407.615 720.015 394.031 713.375 380.75C707.578 374.038 699.579 369.835 690.785 368.719C679.226 368.231 669.233 373.488 660.738 381C647.983 394.217 646.306 412.485 643.495 429.786C643.115 432.124 642.729 434.46 642.342 436.797C641.322 442.957 640.306 449.117 639.303 455.28C638.67 459.167 638.023 463.052 637.375 466.937C637.193 468.071 637.012 469.205 636.825 470.373C633.238 491.707 633.238 491.707 627 497C624.471 498.264 622.575 498.239 619.75 498.312C618.817 498.35 617.883 498.387 616.922 498.426C613.008 497.855 611.027 496.533 608 494C606.54 491.717 605.418 489.689 604.312 487.25C603.981 486.554 603.65 485.859 603.309 485.142C602.187 482.77 601.092 480.386 600 478C599.19 476.256 598.38 474.513 597.57 472.769C595.216 467.68 592.894 462.577 590.578 457.471C589.222 454.488 587.861 451.508 586.497 448.528C574.011 421.258 561.795 393.861 549.962 366.301C544.203 352.888 538.177 339.62 532.03 326.381C526.498 314.466 521.064 302.514 515.75 290.5C515.422 289.757 515.093 289.015 514.755 288.25C514.428 287.512 514.102 286.773 513.765 286.013C513.113 284.538 512.461 283.064 511.809 281.59C511.49 280.869 511.171 280.149 510.843 279.406C506.976 270.672 503.04 261.97 499.092 253.272C496.187 246.867 493.311 240.452 490.484 234.011C489.62 232.051 488.755 230.092 487.89 228.132C487.095 226.324 486.31 224.512 485.525 222.699C480.457 211.229 475.369 200.597 463.707 194.875C452.098 191.122 440.354 194.072 432.062 202.812Z" fill="#1E1E1E"/>
<path d="M687.5 208.875C688.452 209.279 689.404 209.683 690.385 210.1C709.574 218.432 726.015 229.64 742 243C742.861 243.671 743.722 244.343 744.609 245.035C746.728 246.776 748.43 248.471 750.187 250.562C752.976 253.84 755.865 256.989 758.812 260.125C769.197 271.578 776.862 284.344 784 298C784.353 298.657 784.706 299.315 785.07 299.992C796.306 321.076 808.928 353.62 805 378C803.661 382.388 801.702 384.589 797.687 386.937C792.311 388.486 788.836 388.918 783.75 386.375C779.148 382.401 777.716 377.805 776.789 371.922C776.599 370.77 776.409 369.618 776.214 368.432C776.019 367.217 775.825 366.002 775.625 364.75C769.861 331.046 757.39 302.493 735.375 276.187C734.944 275.672 734.513 275.157 734.069 274.626C717.234 254.863 694.076 241.313 669.977 232.255C664.314 230.015 660.129 227.377 657 222C655.904 217.645 656.691 214.556 658.875 210.625C666.419 201.305 677.703 204.6 687.5 208.875Z" fill="#1E1E1E"/>
<path d="M652.121 269.024C667.393 274.279 695 292.5 695 292.5C695 292.5 696 293.5 696.5 294C697.122 294.622 697 294.5 698.5 296.5C700.375 299 701 299 702.5 303C702.9 306.734 702.792 309.244 701.438 312.75C698.759 315.861 696.417 316.825 692.5 318C686.574 317.792 683.333 315.78 679 312C668.168 303.098 657.287 296.788 643.933 292.382C638.597 290.593 633 288.5 631.125 283.75C630.266 279.971 629.902 276.702 631.125 273C634 266 643.949 266.714 652.121 269.024Z" fill="#1E1E1E"/>
</g>
<defs>
<linearGradient id="paint0_linear_142_51" x1="611" y1="368" x2="369" y2="777" gradientUnits="userSpaceOnUse">
<stop stop-color="#FE7C00"/>
<stop offset="1" stop-color="#FECD5F"/>
</linearGradient>
<clipPath id="clip0_142_51">
<rect width="1024" height="1024" rx="180" fill="white"/>
</clipPath>
</defs>
</svg>
